<svg width="35" height="35" viewBox="0 0 35 35" fill="none" xmlns="http://www.w3.org/2000/svg">
<circle cx="17.2097" cy="17.2097" r="17.2097" fill="white"/>
<path d="M21.3932 7.73695L19.7357 10.7624C18.6994 12.6539 17.0133 14.1064 14.9892 14.8512L11.191 16.2499L10.4599 22.267L16.0744 16.6516L17.477 18.0542L11.8626 23.6686L17.8767 22.9376L19.2833 19.0848C20.0118 17.089 21.4281 15.4183 23.2779 14.3731L26.3053 12.663L27.2814 14.39L24.254 16.1011C22.8154 16.9139 21.7138 18.2132 21.1472 19.7653L19.324 24.7608L7.98999 26.1396L9.36781 14.8046L14.3037 12.9893C15.8782 12.4101 17.1897 11.2804 17.9958 9.80914L19.6533 6.78369L21.3932 7.73695Z" fill="#424D3C"/>
</svg>
