<svg width="35" height="35" viewBox="0 0 35 35" fill="none" xmlns="http://www.w3.org/2000/svg">
<circle cx="17.2097" cy="17.2097" r="17.2097" fill="#424D3C"/>
<path d="M21.3934 7.73695L19.7359 10.7624C18.6996 12.6539 17.0136 14.1064 14.9894 14.8512L11.1913 16.2499L10.4602 22.267L16.0746 16.6516L17.4772 18.0542L11.8628 23.6686L17.877 22.9376L19.2836 19.0848C20.012 17.089 21.4284 15.4183 23.2781 14.3731L26.3056 12.663L27.2817 14.39L24.2542 16.1011C22.8156 16.9139 21.7141 18.2132 21.1474 19.7653L19.3242 24.7608L7.99023 26.1396L9.36805 14.8046L14.304 12.9893C15.8784 12.4101 17.1899 11.2804 17.996 9.80914L19.6536 6.78369L21.3934 7.73695Z" fill="white"/>
</svg>
