<svg width="35" height="35" viewBox="0 0 35 35" fill="none" xmlns="http://www.w3.org/2000/svg">
<circle cx="17.2097" cy="17.2097" r="17.2097" fill="#424D3C"/>
<path fill-rule="evenodd" clip-rule="evenodd" d="M10.5833 7.83325C9.85391 7.83325 9.15443 8.12298 8.63871 8.63871C8.12298 9.15443 7.83325 9.85391 7.83325 10.5833V23.4166C7.83325 24.1459 8.12298 24.8454 8.63871 25.3611C9.15443 25.8769 9.85391 26.1666 10.5833 26.1666H18.8333V21.5833C18.8333 20.8539 19.123 20.1544 19.6387 19.6387C20.1544 19.123 20.8539 18.8333 21.5833 18.8333H26.1666V10.5833C26.1666 9.85391 25.8769 9.15443 25.3611 8.63871C24.8454 8.12298 24.1459 7.83325 23.4166 7.83325H10.5833ZM21.8518 25.3608C21.5223 25.6903 21.1145 25.9307 20.6666 26.0593V21.5833C20.6666 21.3401 20.7632 21.107 20.9351 20.9351C21.107 20.7632 21.3401 20.6666 21.5833 20.6666H26.0593C25.9307 21.1145 25.6903 21.5223 25.3608 21.8518L21.8518 25.3608ZM12.4166 11.4999C12.1735 11.4999 11.9403 11.5965 11.7684 11.7684C11.5965 11.9403 11.4999 12.1735 11.4999 12.4166C11.4999 12.6597 11.5965 12.8929 11.7684 13.0648C11.9403 13.2367 12.1735 13.3333 12.4166 13.3333H21.5833C21.8264 13.3333 22.0595 13.2367 22.2314 13.0648C22.4033 12.8929 22.4999 12.6597 22.4999 12.4166C22.4999 12.1735 22.4033 11.9403 22.2314 11.7684C22.0595 11.5965 21.8264 11.4999 21.5833 11.4999H12.4166ZM12.4166 15.1666C12.1735 15.1666 11.9403 15.2632 11.7684 15.4351C11.5965 15.607 11.4999 15.8401 11.4999 16.0833C11.4999 16.3264 11.5965 16.5595 11.7684 16.7314C11.9403 16.9033 12.1735 16.9999 12.4166 16.9999H21.5833C21.8264 16.9999 22.0595 16.9033 22.2314 16.7314C22.4033 16.5595 22.4999 16.3264 22.4999 16.0833C22.4999 15.8401 22.4033 15.607 22.2314 15.4351C22.0595 15.2632 21.8264 15.1666 21.5833 15.1666H12.4166ZM12.4166 18.8333C12.1735 18.8333 11.9403 18.9298 11.7684 19.1017C11.5965 19.2736 11.4999 19.5068 11.4999 19.7499C11.4999 19.993 11.5965 20.2262 11.7684 20.3981C11.9403 20.57 12.1735 20.6666 12.4166 20.6666H16.0833C16.3264 20.6666 16.5595 20.57 16.7314 20.3981C16.9033 20.2262 16.9999 19.993 16.9999 19.7499C16.9999 19.5068 16.9033 19.2736 16.7314 19.1017C16.5595 18.9298 16.3264 18.8333 16.0833 18.8333H12.4166Z" fill="white"/>
</svg>
